<mxfile host="app.diagrams.net" modified="2023-11-01T11:04:09.388Z" agent="Mozilla/5.0 (Windows NT 10.0; Win64; x64) AppleWebKit/537.36 (KHTML, like Gecko) Chrome/118.0.0.0 Safari/537.36" version="22.0.8" etag="GH9Lp7wv-KPk2lXGuy5a" type="github">
  <diagram name="Страница — 1" id="WHW3vwx68dzItflWKQoz">
    <mxGraphModel>
      <root>
        <mxCell id="0" />
        <mxCell id="1" parent="0" />
      </root>
    </mxGraphModel>
  </diagram>
</mxfile>
